<svg width="80" height="80" viewBox="0 0 80 80" fill="none" xmlns="http://www.w3.org/2000/svg">
<path d="M10.5669 24.7998L40.0002 41.8331L69.2335 24.8997" stroke="#2DD06E" stroke-width="2" stroke-linecap="round" stroke-linejoin="round"/>
<path d="M40.0002 72.0332V41.7998" stroke="#2DD06E" stroke-width="2" stroke-linecap="round" stroke-linejoin="round"/>
<path d="M7.9668 30.5666C7.9668 25.9666 11.2667 20.3666 15.3001 18.1333L33.1001 8.2332C36.9001 6.1332 43.1334 6.1332 46.9334 8.2332L64.7335 18.1333C68.7668 20.3666 72.0667 25.9666 72.0667 30.5666V49.4C72.0667 54 68.7668 59.5999 64.7335 61.8333L46.9334 71.7334C43.1334 73.8334 36.9001 73.8334 33.1001 71.7334L15.3001 61.8333C11.2667 59.5999 7.9668 54 7.9668 49.4V46.6666" stroke="#2DD06E" stroke-width="2" stroke-linecap="round" stroke-linejoin="round"/>
<path d="M56.6667 44.1332V31.9333L36.4334 20.2333L32.9334 18.2332L25.0334 13.6665" stroke="#2DD06E" stroke-width="2" stroke-linecap="round" stroke-linejoin="round"/>
</svg>
