<svg width="106" height="18" viewBox="0 0 106 18" fill="none" xmlns="http://www.w3.org/2000/svg">
<path d="M8.85686 1.16327L11.2406 6.24123L16.5712 7.06052L12.714 11.0109L13.6243 16.5918L8.85686 13.9555L4.08944 16.5918L4.99972 11.0109L1.14258 7.06052L6.47315 6.24123L8.85686 1.16327Z" fill="#F2994A"/>
<path d="M30.8569 1.16327L33.2406 6.24123L38.5712 7.06052L34.714 11.0109L35.6243 16.5918L30.8569 13.9555L26.0894 16.5918L26.9997 11.0109L23.1426 7.06052L28.4732 6.24123L30.8569 1.16327Z" fill="#F2994A"/>
<path d="M52.8569 1.16327L55.2406 6.24123L60.5712 7.06052L56.714 11.0109L57.6243 16.5918L52.8569 13.9555L48.0894 16.5918L48.9997 11.0109L45.1426 7.06052L50.4732 6.24123L52.8569 1.16327Z" fill="#F2994A"/>
<path d="M74.8569 1.16327L77.2406 6.24123L82.5712 7.06052L78.714 11.0109L79.6243 16.5918L74.8569 13.9555L70.0894 16.5918L70.9997 11.0109L67.1426 7.06052L72.4732 6.24123L74.8569 1.16327Z" fill="#F2994A"/>
<path d="M96.8569 1.16327L99.2406 6.24123L104.571 7.06052L100.714 11.0109L101.624 16.5918L96.8569 13.9555L92.0894 16.5918L92.9997 11.0109L89.1426 7.06052L94.4732 6.24123L96.8569 1.16327Z" fill="white" stroke="#F2994A" stroke-linecap="round" stroke-linejoin="round"/>
</svg>
